<mxfile host="app.diagrams.net" modified="2023-09-21T17:55:24.249Z" agent="Mozilla/5.0 (X11; CrOS x86_64 14541.0.0) AppleWebKit/537.36 (KHTML, like Gecko) Chrome/116.0.0.0 Safari/537.36" version="21.8.0" etag="tfZIbv4Gru3YvUdljobh" type="github">
  <diagram name="Page-1" id="_H3LwuEu_sYDNshoTjhW">
    <mxGraphModel>
      <root>
        <mxCell id="0" />
        <mxCell id="1" parent="0" />
      </root>
    </mxGraphModel>
  </diagram>
</mxfile>
